<?xml version="1.0" encoding="utf-8"?>
<!-- Generator: Adobe Illustrator 28.1.0, SVG Export Plug-In . SVG Version: 6.00 Build 0)  -->
<svg version="1.1" id="Layer_1" xmlns="http://www.w3.org/2000/svg" xmlns:xlink="http://www.w3.org/1999/xlink" x="0px" y="0px"
	 viewBox="0 0 518.2 804.6" style="enable-background:new 0 0 518.2 804.6;" xml:space="preserve">
<style type="text/css">
	.st0{fill:#FFFFFF;stroke:#231F20;stroke-miterlimit:10;}
	.st1{fill:#FFFFFF;stroke:#231F20;stroke-width:14;stroke-miterlimit:10;}
	.st2{fill:#FFFFFF;stroke:#231F20;stroke-width:17;stroke-linecap:round;stroke-linejoin:round;stroke-miterlimit:10;}
	.st3{fill:#FFFFFF;stroke:#231F20;stroke-width:15;stroke-linecap:round;stroke-linejoin:round;stroke-miterlimit:10;}
	.st4{fill:#FFFFFF;}
	.st5{fill:#231F20;}
	.st6{fill:#FFFFFF;stroke:#231F20;stroke-width:8;stroke-linecap:round;stroke-linejoin:round;stroke-miterlimit:10;}
</style>
<path class="st0" d="M113.3,18.7v43.2"/>
<path class="st1" d="M111,32.9c-11.2-6.8-27.7-2-33.5,9.7c-4.5,9.1-2.7,20,0.9,29.5c4,10.2,10.1,19.7,17.8,27.5
	c14.7,14.9,35.2,24.1,47.1,41.5c3.4,5.1,6.1,11.1,5,17.2c-1.5,8.1-9.2,13.5-16.7,16.8c-3.9,1.7-26.1,13.6-42.3,4
	c-15.7-9.4-18.8-34.8-29.6-36.7c-0.3-0.1-0.7-0.1-1.2,0c-4.5,1.5-4,19.4-1,27.5c5.7,15.5,30.6,23.6,60.5,23"/>
<path class="st1" d="M61.2,133.5c1.2,3.3,19.9,54.6,56.8,59.2c4.7,0.6,18.1,2.1,28.9-6.1c8.9-6.8,11-17.3,13.6-29.3
	c1.7-7.7,3-14.5-0.3-20.7c-3.3-6.1-9.2-8.5-12.6-10.1c-27.2-12.4-43.9-36.4-48.7-43.5c-6.4-9.2-13-18.8-9.3-27
	c4.4-9.8,20.3-10.8,22.4-10.9"/>
<path class="st1" d="M91.6,93.3c3.6,5.6,8.6,10,13.3,14.7c11.3,11.2,21,24,28.6,38c2.6,4.8,4.9,10.7,2.1,15.4
	c-1.2,2-2.7,3.2-3.8,3.9c-7.3,4.5-22.8,14.2-36.7,9.9C75,169,71.2,137.8,61.7,139.4c-2.5,0.4-4.2,3-5.2,5.1"/>
<path class="st1" d="M143,148.4v19.8"/>
<path class="st1" d="M143,169.4"/>
<path class="st1" d="M135.5,176.5c-14.2,13.3-34.1,16.9-49.5,9.2c-14.3-7.1-19.4-21.1-20.5-24.5c-5.9-3.9-10.7-7.3-10.5-7.6
	c0.7-1.1,46.1,37.5,67.7,25.1c12.2-7,16.2-30,9.6-45.2c-2-4.7-5.5-8.2-12.3-15.2c-19-19.4-30.5-20.6-34.1-33.6
	c-1.5-5.3,0.6-4.5-0.8-15.9c-2.1-16.1-7-19.6-4.6-25.5c3.9-9.7,15.6-13.4,25.9-15.1c13.2-2.2,26.5-3.3,39.8-3.3
	c2.8,0,5.8,0.2,7.9,2.1c5.2,4.8,0.7,14.8,1.2,20.6c-14.2-3.1-28.8-4-43.3-2.7c-4.1,0.4-8.3,1-11.7,3.3c-4.7,3.4-6.6,9.6-6.6,15.4
	c0,14.6,9.5,27.5,19.9,37.8s22.4,19.3,30,31.9c7.5,12.5,9.3,30.2-0.8,40.8c-3.8,4-8.9,6.6-14.2,8.4c-12,4.1-25.4,4.2-37.5,0.4
	c14.7,3.5,30.3,3.6,45.1,0.4c2.7-0.6,5.6-1.4,7.4-3.5c1.3-1.6,1.9-3.7,2.4-5.7c1.5-6,3-12.1,4.5-18.2c1.4-5.8,2.9-11.9,1.5-17.8
	c-2.9-12.3-16.4-18.1-27-25c-21-13.8-34.5-38.5-34.8-63.6c0-4.3,0.7-9.4,4.5-11.6c2-1.2,4.4-1.2,6.7-1.2c12.5-0.2,24.9-0.4,37.4-0.6
	c3.4-0.1,8.2-3.2,5.7-5.5c-0.6-0.6-1.5-0.7-2.4-0.8c-8.9-1.1-14-1.8-14.1-1.5c0,0.3,1.5,0.8,7.6,2.1"/>
<path class="st1" d="M154.9,41.7"/>
<path class="st1" d="M162.4,13.8c0.6,19.8,1.1,39.5,1.7,59.2"/>
<path class="st2" d="M211.8,21.2C209,74.6,208,128,208.7,181.4c0,3,0.2,6.2,2,8.5c2,2.4,5.4,3.2,8.5,3.7c27.8,4.9,56.1,6.9,84.3,6.1
	"/>
<path class="st2" d="M202.2,18.8c14.4-0.5,28.8,0,43.2,1.4"/>
<path class="st2" d="M302.1,195.3c0.6-2.1,0.2-4.4-1.1-6.2"/>
<path class="st2" d="M301,187.8c-1.8-1.7-5-1.8-6.9-0.1c5.2,4.3,10.8,8.1,16.8,11.2"/>
<path class="st2" d="M305.9,180.8c-7.3-1.4-15-0.8-22.1,1.7c1,2.8,5,3.7,7.5,2.1s3.6-4.9,3.1-7.8c-0.4-2.8-2.2-5.6-4.9-6.6
	c5.1,0.6,10.3,1.3,15.5,1.9c-9.1-2.1-19.2,0.5-26.1,6.9c3.7,3.9,8.3,6.8,13.4,8.5c1.9,0.6,4.5,0.7,5.1-1.2c0.5-1.5-1-2.9-2.3-3.8
	c-3.4-2.3-7.4-4.4-11.4-3.7s-7.4,5.6-5.2,9c2.2,3.5,8.1,2.6,10.4-0.9s2-8,0.9-12c-0.4-1.6-0.9-3.3-2-4.6c-1.9-2.5-5.2-3.4-8.2-4.1
	c-3-0.7-6.1-1.5-9.1-0.8s-5.9,3.1-5.9,6.1c0,2.3,1.4,4.3,3,6c2.9,3.2,6.5,5.9,10.3,7.8c3,1.5,7.8,1.9,8.6-1.4
	c-5.7-4-12.7-6.1-19.7-6c-0.8,0-1.7,0.1-2.2,0.7c-1.5,1.6,1,3.8,3.1,4.5c4.5,1.4,8.9,2.9,13.4,4.3c1.8,0.6,4.5,0.8,5.1-1
	c0.4-1-0.2-2.1-0.8-3c-5.6-8.3-16.7-12.4-26.3-9.6c4.6,12.1,19.6,19,31.8,14.6c-12.7-7.4-28.2-9.8-42.6-6.8
	c8.1,7.4,18.9,11.8,29.9,12c-6.8-7.9-18.6-8.5-29-8.5c-1.8,0-4.3,1.1-3.5,2.6c0.4,0.8,1.4,1,2.3,1.1c2.5,0.2,4.9,0.2,7.4-0.1
	c1.7-0.2,3.9-1.2,3.5-2.8c-0.2-0.6-0.7-1-1.1-1.4c-10.4-8.5-23.3-14-36.6-15.4c3.3,5.2,7.7,9.8,12.7,13.3c2,1.4,5.1,2.5,6.5,0.6
	c0.8-1,0.7-2.3,0.5-3.5c-0.9-4.5-3.9-8.6-7.9-10.8c-2.1-1.1-4.7-1.7-6.9-0.7c-2.7,1.3-3.7,5-2.9,7.9s3.1,5.3,5.3,7.3
	c1.2,1.1,2.6,2.1,4.2,2.2s3.4-1.3,3.1-2.8c-5.9-2.5-12.4-3.1-18.7-1.8c2.8,2.1,5.7,4.1,8.5,6.2c4.7-4.1,11.7-3.6,17.9-3.2
	c15.3,1.1,30.7,0.5,45.9-1.7C271.7,176,254,170,236.3,164c14.4,0.2,28.9,0.5,43.3,0.7c1.1,0,2.4,0.2,2.8,1.3s-1.9,1.5-1.6,0.5"/>
<path class="st2" d="M212.1,192.9c32.2,1.5,64.2,4.2,96.2,8"/>
<path class="st2" d="M223,171.8c1.2-25.6,0.3-51.2-2.5-76.7c-2.2,34.8-1.4,69.9,2.4,104.6c4.7-21.3,5.6-43.5,2.8-65.1"/>
<path class="st2" d="M215,190.7c-1.7,2.2-0.7,5.7,1.5,7.5s5.1,2.3,7.9,2.8c26.1,4.3,52.2,8.5,78.6,9.2c1.4,0,2.8,0,4-0.7
	c1-0.6,1.7-1.7,2.2-2.8c11-21.7-4.2-48.1,0.4-72c2.8,18.1,1.8,36.7-2.8,54.4"/>
<path class="st2" d="M217.1,192c26.1-0.5,52.1-1,78.1-1.5c0.8,0,1.6,0,2.2,0.5c0.9,0.7,0.9,1.9,1,3c0.7,5.3,7.7,8.7,12.3,5.9
	c-25.2,2.5-50.7-2.2-74.5-10.8c14.1,1.2,28,4.1,41.4,8.6"/>
<path class="st2" d="M219.7,27.4c-0.6,28.5-1.1,57-1.7,85.5c-0.1-25.5,14.2-51.3,6.1-75.6c-4.9,35.4,6.5,71.3,3.5,106.9
	c1.1-33,2.2-66,3.3-99c0.2-6.8-0.1-14.7-5.7-18.6"/>
<path class="st2" d="M233.1,26.1"/>
<path class="st3" d="M377.4,105.6c24.3,0.5,48.5,1.1,72.8,1.6"/>
<path class="st3" d="M421.1,110.5c2,18,2.9,36.2,2.7,54.3c-0.1,11.1-0.7,22.6-6.3,32.2s-17.6,16.2-27.9,12.2
	c-6.6-2.6-11-8.7-14.6-14.8c-19.3-32-28.2-70.3-24.9-107.5c2.4-26.6,13.6-55.8,38.4-65.5c9-3.5,20.8-3.3,26.5,4.5
	c7.4,10.1-0.2,25,4.4,36.5c-5.8,2.2-12.1,3-18.2,2.3c12.2,0.2,24.5,0.3,36.7,0.5"/>
<path class="st3" d="M418.3,63.6c-0.3-7.9-1.3-15.8-3-23.5c-0.3-1.4-0.7-2.9-1.7-4c-1.1-1.2-2.8-1.7-4.4-2
	c-9.9-1.7-20.2,2.8-27.3,10s-11.4,16.6-14.2,26.3c-5.5,18.4-6.1,38.4-0.3,56.6s18.6,34.5,35.7,43.1c0.8,0.4,1.7,0.8,2.6,0.6
	c1.5-0.4,2-2.3,2.1-3.9c1.9-21.2,2.3-42.5,1.3-63.7c-2.9,2.4-7.2,2.9-10.7,1.4c13.5-1.7,27.1-2.1,40.6-1.2"/>
<path class="st3" d="M449,100.8c-17.9-0.1-35.8-0.3-53.7-0.4c6.4,4.6,14.2,7.3,22,7.8c3.4,26.1,0,53-9.7,77.5"/>
<path class="st3" d="M444,109.2l-19.8,0.2c2.9,23.3-10,45.6-12.9,69"/>
<path class="st3" d="M428,111.8c1.3,15.6-1.5,31.3-4.2,46.8c-2.9,16.2-8.2,35.4-24,40.1C367.9,165,352.4,116.4,359,70.5
	c2.2-15.5,7.4-31.5,19.3-41.7s32.1-11.6,42.3,0.2c7.2,8.4,7.6,20.5,7.7,31.5c-1-8.7-2.2-17.3-3.8-25.9c-0.5-2.5-1-5.2-2.5-7.3
	c-1.9-2.6-5-4-8.1-4.8c-16-4.1-33.1,5.1-42.9,18.3s-13.9,29.8-17.3,46c-2.2,10.5-4.2,21.3-2,31.8s8.6,19.7,12.1,29.9
	c4.1,11.8,4.3,24.8,9.3,36.2s17.9,21.2,29.4,16.6c4.1-11.2-2.3-25.2-13.5-29.4c-4.7-1.8-9.9-2-14.5-4s-8.8-6.7-7.5-11.6
	c7.1,4.6,14,9.6,20.7,14.9c-0.2,8.9-0.4,17.7-0.6,26.5c-4-4-6.9-9-8.4-14.5"/>
<path class="st3" d="M413.9,125.4c-2.3,15.4-9.2,30.1-19.7,41.6c6.9,0.4,13.8,0.8,20.6,1.2c0.8,0.1,1.6,0.1,2.2-0.4
	c0.5-0.5,0.6-1.2,0.8-1.9c2.2-15.4,4.4-30.9,6.5-46.3c-8.1,20.2-15,40.9-20.6,62c-0.6,2.2-1.2,4.7-0.2,6.8s4.2,3.1,5.6,1.3
	c0.6-0.8,0.7-1.8,0.7-2.8c0.4-5.6,0.7-11.2,1.1-16.8c-0.2,3.6,0.2,7.3,1.2,10.8"/>
<path class="st3" d="M414.4,63.6h16"/>
<path class="st3" d="M408.2,24.1l-3.2,0.3c4-0.5,8.2-1,12.1-0.1s7.8,3.4,9.2,7.3c0.7,2,0.7,4.1,0.6,6.2c-0.1,9.3-0.2,18.7-0.3,28
	c-5,0.5-10,0.5-14.9,0.1c8.8,0.4,17.6,1.9,26,4.3"/>
<path class="st3" d="M410.6,24.8c3.7,7.5,6,15.7,6.9,24.1"/>
<path class="st3" d="M412,72.5l27.1-1.5"/>
<g>
	<path class="st4" d="M10.6,342.9h23.5"/>
	<path class="st5" d="M34.1,346.9H10.6c-2.2,0-4-1.8-4-4s1.8-4,4-4h23.5c2.2,0,4,1.8,4,4S36.3,346.9,34.1,346.9z"/>
</g>
<g>
	<path class="st4" d="M17.8,342.9c0.4-8.8,7.6-16,15.5-19.9c7.8-3.8,18.6-4.5,23.7,2.4c2.8,3.8,3,8.9,3.2,13.6
		c0.5,16.3,0.9,32.7,1.3,49c0,1.4,0.1,2.9-0.6,4.2c-2.2,4.2-8.6,2-12.5-0.6c9.2-1.2,18.6-1.1,27.8,0.3c-7.2,3.6-15.9,4.1-23.6,1.5"
		/>
	<path class="st5" d="M62.6,399c-2,0-3.9-0.2-5.9-0.5c-0.1,0-0.1,0-0.2,0c-4.6,0-9-2.7-10.4-3.6c-1.4-0.9-2.1-2.6-1.7-4.2
		c0.4-1.6,1.7-2.8,3.4-3.1c3.2-0.4,6.4-0.7,9.6-0.8c-0.4-15.7-0.8-31.8-1.3-47.7c-0.2-4.2-0.4-8.6-2.4-11.4
		c-3.6-4.9-12.4-4.3-18.7-1.2c-6.2,3-12.9,9-13.3,16.5c-0.1,2.2-2,3.9-4.2,3.8s-3.9-2-3.8-4.2c0.5-11,9.5-19.2,17.7-23.3
		c13.1-6.4,24.1-2.6,28.7,3.6c3.5,4.8,3.8,10.6,4,15.7v0.1c0.5,15.9,0.9,32.2,1.3,47.9v0.1c3.8,0.2,7.6,0.5,11.3,1.1
		c1.7,0.3,3.1,1.6,3.3,3.3s-0.6,3.4-2.2,4.2C73.3,397.8,68,399,62.6,399z"/>
</g>
<g>
	<path class="st5" d="M60,397.2c-2.1,0-3.8-1.6-4-3.7c-0.3-4.6-0.7-9.2-1.1-13.7c-2.1,2.8-5,4.9-7.8,6.8c-3.2,2.1-8,5.3-13.5,4.2
		c-3.5-0.7-6.7-3.7-7.6-7.5c0-0.2-0.1-0.3-0.1-0.5c-1-1-1.5-2.4-1.2-3.8c2.8-11.7,12.7-21.1,24.2-24.2c-0.3-3.1-0.5-6.3-0.7-9.4
		c-0.2-2.8-0.5-5.6-1.1-8c-1.1-0.6-2.8-0.9-4.8-0.9c-8-0.2-16.2,2.6-22.7,7.6c-1.5,1.2-3.6,1.1-5.1-0.1c-1.4-1.2-1.8-3.3-0.9-5
		c6.1-11,18-18.1,30.5-18.1c4.3,0,7.6,1,10.1,3c4.5,3.8,5,9.9,5.3,13.5c0.2,3.1,0.5,6.2,0.7,9.4c2.9,15.4,4.1,31,3.6,46.5
		C63.9,395.5,62.2,397.2,60,397.2C60.1,397.2,60,397.2,60,397.2z M35,377.6c4.8,0.1,10-2.8,12.8-6.7c0.8-1.1,1.5-2.4,2.1-3.7
		c0-0.3,0-0.6-0.1-0.9v-0.5c-0.1-0.9-0.1-1.8-0.2-2.7c-6.5,2.1-12.3,7-15.3,13C34.7,376.6,34.9,377.1,35,377.6z"/>
</g>
<path class="st5" d="M114.3,376.2c1.8-3,6.5-11.1,2-17.6c-1.6-2.2-3.8-3.6-5.4-4.4c-2.9-1.5-6-2.6-9.1-3.3c-1.5-0.8-3.2-1.4-4.9-1.7
	c-1.8-0.4-3.6-0.5-5.3-0.3c-0.7,0-1.4,0-2.1,0c-0.1-2.6-0.2-5.2-0.2-7.8c-0.6-18.3-1.2-36.7-1.8-55c1.8-0.2,3.6-0.6,5.3-1.1
	c1.3-0.4,2.2-1.8,1.8-3.1c-0.4-1.3-1.7-2.1-3.1-1.8c-1.1,0.3-2.1,0.6-3.2,0.8c-0.3,0.1-0.7,0.1-1,0.2c-0.1,0-0.8,0.1-0.3,0.1
	c-0.6,0.1-1.1,0.1-1.6,0.2c-2.2,0.2-4.5,0.1-6.7-0.1c-1.3-0.1-2.6,1.3-2.5,2.5c0,1.4,1,2.2,2.4,2.4c0.3,0,0.6,0,0.9,0.1
	c0,0,0,0,0,0.1c0.6,18.3,1.2,36.7,1.8,55c0.1,3.9,0.3,7.9,0.4,11.8c-1,1.3-1.2,3.1-0.4,4.5c0.2,0.3,0.4,0.5,0.6,0.8
	c0.4,12.6,0.8,25.1,1.2,37.7c0.1,2.2,1.8,3.9,4,3.9h0.1c2.1-0.1,3.7-1.7,3.8-3.7c5.1,0.1,10.2-0.3,15.2-1.1
	c-3.6-0.1-7.1-0.2-10.7-0.3C103.9,392.1,109.6,383.9,114.3,376.2z M100,375.6c-2.5,3.7-5.9,6.7-9.4,9.4c-0.3-8.8-0.6-17.7-0.8-26.5
	c1.5-0.2,3-0.4,4.5-0.4l8.5,6C103.5,367.6,102.5,371.9,100,375.6z"/>
<path class="st6" d="M145.7,358.5c-3.7-3.1-9.8-0.9-12.3,3.3s-2.4,9.2-2.3,14.1c0.1,3.2,0.3,6.7,2.2,9.3c1.5,1.9,3.8,3.1,6,4
	c8.2,3.2,17.2,4.3,25.9,3c-10.1,3.5-21.3,3.8-31.6,0.9c-1.8-0.5-3.5-1.1-4.8-2.4c-1.6-1.6-2-4-2.4-6.2c-1.4-7.6-2.6-16.1,1.8-22.4
	c5.6-8.1,17.3-8.4,27.2-7.7c-8.6,1.3-18.3,3.3-22.8,10.8c-2.9,4.8-2.8,10.8-2.4,16.3c0.1,1.8,0.4,3.8,1.6,5.1
	c1.4,1.5,3.5,1.7,5.5,1.9c9.2,0.9,18.3,1.8,27.5,2.7"/>
<path class="st6" d="M208.3,358.6c0.6-4.9-7-7.1-10.7-3.9s-4.4,8.6-4.7,13.5c-0.3,4-0.6,8-0.9,12c-0.5,6.5,0.4,14.9,6.7,16.5
	c4.1,1,8.4-2,10.2-5.7s1.9-8.2,1.9-12.4c0-27.6-0.1-55.3-0.1-82.9c0-3.2,0-6.6-1.5-9.4s-4.8-5.1-7.9-4.1c5.2,0.2,10.3,0.4,15.5,0.5"
	/>
<path class="st6" d="M208.1,353.3c-8.8-0.6-16.8,6-20.2,14.1s-2.9,17.3-1.4,25.9c0.3,1.6,0.6,3.3,1.5,4.6c3,4.8,10.8,3.9,14.6-0.3
	s4.6-10.2,5.3-15.8c1-8.1,1.9-16.3,2.9-24.5c-1.9,15.6-1.7,31.5,0.6,47"/>
<path class="st6" d="M202.9,356.2c-10.8,12-14.8,29.5-10.4,45"/>
<path class="st6" d="M193,394.7c-2.6-11.2-4.6-24.7,3.7-32.6"/>
<path class="st5" d="M271.9,396.6l-22-4.2c-2.2-0.4-4.7-0.9-6-2.2c-1.6-1.6-1.6-4.4-1.3-8.7c0.1-1.7,0.2-3.5,0.1-5.3
	c8.4-0.8,16.8-1.1,25-1c1.4,0,2.7-0.7,3.4-1.8c1.3-2.1,1.7-4.5,1-6.9c-1.2-4.3-5.4-7.7-9-9.3c-6.5-3-13.5-4.9-20.8-5.6
	c-1.2-0.1-3.1-0.3-4.9,0.5c-4,1.7-4.9,6-5.3,7.9c-1.8,8.7-3.1,16.8-3.9,24.9c-0.3,3.4-0.7,7.7,1.3,11.7c2.5,5,7.7,8.1,15.9,9.4
	c3.3,0.5,6.6,0.7,9.9,0.7c5.7,0,11.4-0.7,16.8-2.1c1.8-0.5,3.1-2.1,3-4S273.7,396.9,271.9,396.6z M239.9,367.4c-0.3-0.4-0.6-0.7-1-1
	c0.3-1.7,0.7-3.4,1-5.1c0.3-1.3,0.5-1.8,0.6-2.1c0.3,0,0.7,0,1,0.1c6.4,0.7,12.5,2.3,18.2,4.9c1.6,0.8,3,1.9,3.8,2.9
	c-7.6,0-15.2,0.4-22.9,1.2C240.4,368,240.2,367.7,239.9,367.4z"/>
<g>
	<path class="st4" d="M310.6,373.7c-2.8,2.3-8.3,1.1-8.4-3.7c0-2.8,0.9-5.5,3.5-6.9c2.4-1.3,5-0.8,7.4,0.3h0.1
		c0.2,0,0.3,0.1,0.5,0.1l0.2-0.8c-4.8-2.3-11-4.5-14.9-1c-2.7,2.4-2.9,6.3-3,9.8c-0.5,26.7-0.6,53.5-0.3,80.2l0,0l5.7-27.8l0,0
		c-0.7-0.8-1.2-1.8-1.3-3.2c-0.3-5-1.2-9.8-0.9-14.8c0.1-2.1,1.4-4.4,3.7-4.8c1-0.2,2.1-0.4,3.3-0.5l0,0l5.3-26.1
		C311.1,374.2,310.9,374,310.6,373.7z"/>
	<path class="st5" d="M304.5,364c0.4-0.3,0.8-0.7,1.2-0.9c2.4-1.3,5-0.8,7.4,0.3h0.1c1.4,0.3,2.7,0.9,3.9,1.7
		c0.1-0.2,0.2-0.4,0.3-0.6c1-2,0.1-4.4-1.9-5.3c-3.5-1.7-12.9-6.2-19.3-0.4c-4.1,3.6-4.2,9.1-4.3,12.7c-0.5,26.7-0.6,53.8-0.3,80.5
		c0,2.2,1.8,4,4,4l0,0c2.2,0,4-1.8,4-4c-0.1-12.3-0.2-24.8-0.1-37.2l0,0c-0.3-2.9-0.6-5.9-0.4-8.9c0-0.6,0.2-1.2,0.4-1.8l0,0
		c0.1-10.8,0.2-21.7,0.4-32.4c0.1-3.1,0.3-5.7,1.7-6.9C302.2,364.2,303.2,363.9,304.5,364z"/>
</g>
<g>
	<path class="st4" d="M304.4,392.2c-1.9-6.3-2.3-13-1.4-19.5l0,0c-0.4-0.7-0.7-1.6-0.7-2.6c0-2.8,0.9-5.5,3.5-6.9
		c0.8-0.4,1.5-0.6,2.3-0.7c0-0.1,0,0,0-0.1c-1.7-1.7-3.4-3.1-5.4-2.1c-1.7,0.9-2,3.1-2.2,5.1c-0.8,11.5-1.6,23-2.4,34.5l0,0
		l-13.8,1.3l18.9-0.1l0,0c1.8-0.3,4.1-0.6,6.3-0.6c-0.3-0.2-0.7-0.5-1-0.8C306.4,397.7,305.2,394.9,304.4,392.2z"/>
	<path class="st4" d="M315.1,401.6L315.1,401.6c0.6-0.1,1.1-0.3,1.6-0.6h-3.2C314.1,401.2,314.6,401.4,315.1,401.6z"/>
	<path class="st4" d="M311.4,362.7c-1-0.6-2.2-0.8-3.3-0.4c0,0,0,0,0.1,0.1C309.3,362.2,310.4,362.4,311.4,362.7z"/>
</g>
<g>
	<path class="st4" d="M316.1,364.5c-0.5-1.1-1.2-2.1-2-3l1,2.6C315.5,364.2,315.8,364.4,316.1,364.5z"/>
	<path class="st5" d="M317.2,365.7l-1.3-0.7c-0.3-0.2-0.6-0.3-0.9-0.4l-0.2-0.1l-2.2-5.5l1.9,2.2c0.8,0.9,1.5,2,2.1,3.1L317.2,365.7
		z"/>
</g>
<g>
	<path class="st4" d="M300.5,398.4c2.5,1.2,5.9,0.5,7.7-1.6l0,0c-8.4-2.6-17.5-2.9-26.1-0.9c11.4,0.2,22.9,0.5,34.3,0.7"/>
	<path class="st5" d="M316.3,392.6c-2.9-0.1-5.9-0.1-8.8-0.2l0,0c-8.5-2.3-17.5-2.4-26.2-0.4c-1.5,0.4-2.8,1.5-3.1,3.1
		c-0.5,2.6,1.4,4.8,3.8,4.8l16.7,2.1l0,0c0.5,0.2,1.1,0.4,1.6,0.6l0,0c0.6-0.7,1.4-1.3,2.3-1.5c2.1-0.4,5-0.8,7.7-0.6
		c2,0,3.9,0.1,5.9,0.1c0,0,0,0,0.1,0c2.4,0,4.4-2.2,3.9-4.8C320,393.9,318.2,392.6,316.3,392.6z"/>
</g>
<g>
	<path class="st5" d="M369.6,402.9c0.8,1.8,0.1,3.9-1.5,4.9c-6.5,4.2-14.3,6.4-22.1,6.4c-4.1,0-8.2-0.6-12.2-1.9
		c-1.5-0.5-3.5-1.2-4.7-3.2c-1.5-2.5-0.8-5.2-0.5-6.6v-0.1c0.1-0.2,0.1-0.4,0.2-0.6c-1.5-3.3-1.9-7.5-1.2-12.2
		c0.1-0.7,0.2-1.5,0.4-2.2c0-0.3,0-0.7,0-1c0-5,2.1-9.9,5.6-13.3c1.8-2.7,3.9-5.1,6.4-6.9c1-1.5,2.4-2.9,4.2-4
		c2.5-1.5,5.3-1.8,8-1.5c3.8-1.2,7-2.3,8.4-4.8c1.1-1.9,3.5-2.6,5.4-1.6c1.9,1.1,2.6,3.5,1.6,5.4c-1.5,2.7-3.6,4.5-6,5.8
		c0.4,0.4,0.7,0.8,1,1.2c3.6,4.6,4.9,10.2,5.9,15.7s1.9,11.3-0.8,16.5 M344.5,376c0,2,0,4,0.1,5.9c0,2.9,0,5.8,0.1,8.7v0.6
		c0.1,2.4,0.1,4.8,1,6.5c0.8,1.5,2.1,2.6,3.5,3.3c6.1-0.7,9.8-2.5,11.3-5.6c1.5-3,0.9-7.1,0-11.4c-0.9-4.6-1.8-9-4.3-12.2
		c-1-1.2-2.3-2.2-3.8-2.7c-1.7,0.5-3.2,1-4.6,1.7c-0.6,0.3-1.3,0.7-1.9,1.1C345.5,372.9,345,374.4,344.5,376z"/>
</g>
<g>
	<path class="st5" d="M367.5,396c1.8,1.2,2.3,3.7,1.1,5.5c-4.6,6.9-10.8,12.6-18,16.2c-0.9,0.5-1.9,1-2.9,1.5c-2.1,1-4.2,2-5.8,3.3
		c-1.7,1.3-3.5,3.5-3.4,5.7c0.1,1.1,0.7,2.5,2,4.1c2.6,3.4,6.3,6.2,10.4,7.7c0.5,0.2,1.1,0.4,1.6,0.6c5.2,1.8,13.1,4.6,13.3,12.2
		c0.2,3.9-2,6.9-3.5,9.1c-0.7,1-2,2.8-2,4c1.7-0.5,3.6,0.2,4.5,1.7c1.2,1.9,0.6,4.3-1.3,5.5c-1.1,0.7-2.2,1-3.4,1
		c-1.1,0-2.2-0.3-3.2-0.8c-2.5-1.3-4.3-3.9-4.6-6.7c-0.3-4,2-7.3,3.4-9.3c0.9-1.4,2.1-3,2.1-4.2c-0.1-2.2-4.5-3.7-8-5
		c-0.6-0.2-1.2-0.4-1.8-0.6c-5.5-2.1-10.5-5.8-14-10.4c-1.4-1.9-3.2-4.8-3.5-8.3v-0.1c-0.3-4.5,2.1-9.1,6.4-12.5
		c2.3-1.8,4.8-3,7.3-4.2c0.9-0.4,1.8-0.9,2.7-1.4"/>
</g>
<g>
	<path class="st5" d="M351.7,441.6c-0.2,0-0.4,0-0.6,0c-6.4-0.2-11.9-3.5-16.8-6.3l-0.4-0.2c-1.9-1.1-2.6-3.6-1.4-5.5
		c1.1-1.9,3.6-2.6,5.5-1.4l0.4,0.2c4.3,2.5,8.7,5.1,13.1,5.2c3.5,0.1,7.7-2.1,8.1-5.2c0.3-2.8-2.1-5.7-4.6-7.4
		c-1.4-1-2.9-1.9-4.5-2.8c-2.3-1.4-4.8-2.8-7-4.7c-1.7-1.4-1.9-4-0.4-5.6c1.4-1.7,4-1.9,5.6-0.4c1.7,1.4,3.7,2.6,5.8,3.9
		c1.7,1,3.4,2,5.1,3.2c5.5,4,8.4,9.5,7.8,14.8C366.6,437,358.7,441.6,351.7,441.6z"/>
</g>
<path class="st5" d="M433,371.6c-1.1-3.6-2.9-8.8-6.8-12.7c-4.3-4.5-10.9-6.1-16-4c-3,1.2-5.1,3.5-6.6,5.9c-0.4,0.5-0.9,1-1.2,1.5
	c0.8-23,2.1-45.9,3.3-68.4c1.6-0.2,3.3-0.6,4.9-1.3c1.7-0.7,2.7-2.4,2.5-4.2c-0.2-1.8-1.7-3.2-3.5-3.5c-6.5-0.8-13.1-0.2-19.6,1.5
	c-2.1,0.6-3.4,2.8-2.8,4.9s2.8,3.4,4.9,2.8c1.9-0.5,3.8-0.9,5.7-1.2c-1.6,30-3.2,60.6-4,91.3c-1.6,7.8-2,15.8-1,23.5
	c0.1,0.6,0.3,1.2,0.6,1.7c0,5,0,10,0,15c0,2,1.5,3.7,3.6,4c2,0.2,3.9-1.1,4.3-3.1l1.2-5.2c2.2-9.6,4.4-19.5,6.5-29.2
	c0.9-4.1,1.8-7.5,3.6-10c1.4-2,4.2-3.6,6.2-2.9c2.5,0.8,4.2,4.2,5.1,10.5c1.1,7.1,2.2,14.2,3.2,21.3c1.1,7.1,2.2,14.2,3.3,21.3
	c0.3,2,2,3.4,4,3.4c0.1,0,0.2,0,0.3,0c2.1-0.1,3.7-1.9,3.7-3.9C438.6,410.8,438.9,390.6,433,371.6z"/>
<g>
	<path class="st5" d="M476.5,423.5c-1.7-0.1-3.4-0.1-5.1-0.1c-0.2,0-0.5,0-0.7,0c1.7-22.6,0.5-45.4-0.8-67.6
		c-0.2-2.4-1.7-5.4-4.4-6.3c-1.1-0.4-2.2-0.4-3.1,0c-0.4-0.2-0.9-0.2-1.4-0.2c-2.2,0-4,1.8-4,4l0.5,69.8c0,0.2,0,0.4,0,0.6
		c-1,0-2,0.1-3,0.1c-1.9,0.1-3.4,1.5-3.7,3.3c-0.4,2.5,0.7,4.9,3.1,6.2c1.1,0.6,2.4,1,3.7,1c1.8,0,3.5-0.6,4.8-1.7
		c0.4-0.4,0.8-0.7,1.1-1.1c4.3-0.1,8.5-0.1,12.8,0c2.2,0.1,4-1.7,4.1-3.9S478.7,423.6,476.5,423.5z"/>
	<path class="st5" d="M458.8,338.5c0.7,0.2,1.5,0.3,2.2,0.3c2.5,0,4.9-1,6.9-2.9c2.6-2.5,3.6-5.9,2.9-9.1s-3.1-5.8-6.4-7
		c-3.2-1.2-6.7-0.7-9.3,1.2c-0.6,0.5-1.1,1.1-1.4,1.9c-2,2.3-2.6,5.6-1.7,8.8C453,335,455.6,337.6,458.8,338.5z"/>
</g>
<g>
	<path class="st5" d="M51,437.4c0.9,0.5,1.9,0.8,2.8,0.8c0.9,0,1.9-0.2,2.7-0.7c0.6-0.3,1-0.8,1.4-1.3c1.6-2.5,1.8-5.8,0.6-8.6
		c-0.6-1.2-1.7-2.1-3.1-2.3c-3.6-0.5-7.2,2.1-8,5.6c-0.2,1.2,0.1,2.5,0.9,3.4C48.9,435.6,49.8,436.7,51,437.4z"/>
	<path class="st5" d="M68.6,448.7c-0.2-2-1.9-3.6-4-3.6l0,0l-8.5,0.1c-1.1,0-2.1,0.5-2.9,1.3c-2.1,0.1-4.3,0-6.4-0.2
		c-2.2-0.2-4.2,1.4-4.4,3.6s1.4,4.2,3.6,4.4c2.1,0.2,4.2,0.3,6.4,0.3c0.5,12.3,0.2,24.9-1.1,37.5c-0.1,1.1-0.2,2.2-0.4,3.3
		c-1.2,3.1-2.2,6.3-3.1,9.5c-0.3,0.4-0.5,0.7-0.8,1.1c-1.4,1.6-3.8,2.6-6,2.6c-1.4,0-2.4-0.5-3.1-1.3c-0.4-0.6-0.8-1.3-1.2-2.2
		c-0.7-1.4-1.5-3.1-3-4.5c-2.2-2.2-5.7-3-8.6-1.9c-2.4,0.9-3.9,2.9-4.1,5.3c-0.1,1.1,0.3,2.1,1,2.9c0.5,0.6,1,1.2,1.5,1.8
		c0.1,2.3,1.4,4.5,2.7,5.8c1.7,1.8,3.4,3.6,5.1,5.3c0.6,0.8,1.1,1.6,1.7,2.3c1.2,1.7,2.8,4.1,5.6,5.5c0.5,0.2,1,0.4,1.5,0.6
		c0.2,0.1,0.3,0.2,0.5,0.3c1,1.2,2.7,2.8,4.9,3.4c0.8,0.3,1.6,0.4,2.4,0.4c1.4,0,2.8-0.4,4.1-1.1c4.5-2.6,6.2-8.8,6.7-10.6
		c4.8-21.7,6.4-44.3,4.6-67.1c0.7-0.1,1.4-0.3,2.1-0.4C67.5,452.6,68.8,450.7,68.6,448.7z"/>
</g>
<path class="st5" d="M133.9,500.8c-0.4-1.8-2-3.2-3.9-3.2l0,0c-2.2,0-4.1,0.1-5.8,0.1c-2.6-1.1-5.2-3.6-7.3-6.3
	c-5.1-6.7-9.3-14.2-12.3-22.1l-0.3-0.8c-0.4-1-0.8-2-1.3-3.1c5.1-6.5,7-15.6,4.1-23.4c-0.5-1.3-1.6-2.3-3-2.6
	c-4.8-0.9-8.8,1.5-11.7,5.4c0-3.8,0-7.5,0-11.2c0-6.2,0-12.5,0-18.7h3.4c2.2,0,4-1.8,4-4s-1.8-4-4-4H84.7c-2.2,0-4,1.8-4,4
	c0,2.1,1.6,3.8,3.7,4c0,6.2,0,12.5,0,18.8c0,12.3,0,24.9,0,37.5c0,0.1-0.1,0.2-0.1,0.3c-0.2,0.7-0.1,1.5,0.1,2.1c0,0.6,0,1.3,0,1.9
	c-0.8,8.9-0.8,18,0.1,26.9c0.2,2.1,2.1,3.7,4.2,3.6s3.8-1.9,3.8-4c-0.1-7.9-0.1-15.9-0.1-23.8c3.5,1.7,6.5,4.4,8.7,7.6
	c3.3,4.7,6.7,9.7,9,15.2c0.2,0.4,0.2,0.6,0.3,1c1.3,4.5,4.3,4.4,9.8,4.2c0.8,0,1.7-0.1,2.7-0.1c1.2,0.4,2.5,0.6,3.8,0.6
	c1.6,0,3.3-0.3,4.9-1C133.4,504.5,134.3,502.6,133.9,500.8z M96.6,471.1l0.1-0.1c0,0.1,0.1,0.1,0.1,0.2
	C96.7,471.2,96.7,471.1,96.6,471.1z M97.5,459.4c-0.7-0.4-1.5-0.6-2.3-0.8c0.2-0.8,0.4-1.6,0.6-2.3c0.9-3.5,2.6-7,4.6-8.4
	C100.8,451.8,99.7,456,97.5,459.4z"/>
<path class="st5" d="M152.2,408.2c-0.8-1-2-1.7-3.2-1.7h-11.7c-1.8,0-3.3,1.1-3.8,2.8s0.1,3.5,1.6,4.5c0.7,0.5,1.4,0.9,2.2,1.2
	c-0.6,0.9-0.1,0.7,0.1,1.7c0.7,3.6,0.7,3.6,0.7,3.6c0.8,0.8-1,4,0.1,4c0.1,6.8,0.3,13.6,0.4,20.4c0.2,10.1,0.4,20.1,0.6,30.2
	c0.3,12.5,0.2,23.6-3.9,33.3c-0.5,1.1-0.4,2.4,0.2,3.5c1,1.8,2.9,3,5.1,3.2c0.2,0,0.4,0,0.7,0c2.3,0,4.7-1.1,6.1-2.9
	c2.2-2.7,2.2-6.1,2.2-8.6c-0.1-9.1-0.2-18.3-0.3-27.4s-0.1-18.2-0.2-27.3c-0.1-12.5-0.2-25.4,3.7-37.1
	C153.2,410.6,153,409.2,152.2,408.2z"/>
<path class="st5" d="M236.7,521.8c-0.2-2-1.9-3.4-3.9-3.5h-0.2c-0.3-0.6-0.5-1.7-0.5-2.8c0-21.2,0-43.2,0.1-64.8
	c0-0.3,0-0.5-0.1-0.8c0.2-0.3,0.3-0.5,0.4-0.8c0.5-1.6,0-3.4-1.4-4.4c-1.7-1.3-3.9-1.9-6-1.7c-0.2,0-0.4,0-0.5,0.1
	c-1.1,0-2.2,0.4-3,1.2c-0.4,0-0.7,0-1.1,0.1H220c-1.7,0.1-3.1,1.3-3.6,2.9c-2.5,9-5,17.9-7.5,26.9c-2.7,6.6-5.5,13.3-8.2,19.9
	c-0.8-1.4-1.5-2.7-2.3-4.1c-3.1-8.2-7.4-15.9-12.1-23.2c-3.5-8.2-7.1-16.4-10.7-24.4c-0.9-1.9-3.1-2.8-5.1-2.1
	c-0.5,0.2-0.9,0.4-1.2,0.7l-2.7-0.4c-1-0.1-2,0.1-2.8,0.7h-2.7c-2.2,0-4,1.8-4,4s1.8,4,4,4h1.1c0.4,20.7-0.2,41.1-1.9,60.9
	c-1.7,0.1-3.3,0.3-5,0.6c-1.2,0.3-2.3,1.1-2.8,2.2c-0.5,1.1-0.5,2.5,0.1,3.6c2.1,4,6.5,6.5,11,6.4c2-0.1,3.6-1.6,3.8-3.6
	c0-0.2,0-0.4,0.1-0.6c0.5,0.1,0.9,0.2,1.4,0.4c1.2,0.4,2.6,0.2,3.6-0.6s1.6-2,1.6-3.3c-0.2-16.4-0.3-31.8-0.3-46.6l18.8,48.1
	c0.6,1.4,1.9,2.4,3.4,2.5c2,1.6,4.6,2.1,6.9,1.3c1.5-0.5,2.8-1.4,3.7-2.7c0,0,0,0,0.1-0.1c0.8-0.7,1.3-1.6,1.4-2.6
	c0.5-1.3,0.7-2.7,0.6-4.1c0-0.1,0-0.1,0-0.2c-0.1-0.8-0.2-1.5-0.4-2.2c1-10.2,5.3-20,9.8-30.2c1.1-2.6,2.3-5.3,3.4-8
	c0,4.6,0,9.1,0,13.7c0,12.5,0.1,25,0.1,37.6c0,2.2,1.7,3.9,3.9,4l4.8,0.1c0.5,0.1,1,0.2,1.5,0.2c0.6,0,1.3-0.1,1.9-0.3
	C235.7,525.6,236.9,523.7,236.7,521.8z"/>
<path class="st5" d="M290.9,527.5c2.8-23.4-1.7-48-12.5-69.2c-0.9-1.7-2.8-2.5-4.6-2c-0.6-0.2-1.3-0.2-2-0.1
	c-5.8,1.1-10.9,4.6-14.2,9.3l-0.1-13.2c0.7-0.7,1.1-1.7,1.1-2.7c0-2.2-1.8-4-4-4h-1h-0.1h-5.9c-0.4,0-0.7,0-1,0.1
	c-0.9,0.1-1.7,0.5-2.4,1.2c-0.8,0.8-1.2,1.9-1.1,3c1.1,21.8,1,44.2-0.2,66.7c-0.1,2.7-0.3,6.4,2,9.4c1.6,2.2,4.5,3.5,7.4,3.3
	c2.4-0.2,4.4-1.5,5.5-3.5c0.3-0.6,0.5-1.2,0.5-1.9l-0.3-34.2c1.9-6.6,5.4-15,11.8-21.7c1.3-0.6,2.6-0.8,3.6-0.6
	c0.7,0.1,1.3,0.4,1.9,0.8l11.8,62.9c0.6,0,1.1-0.1,1.7-0.4c0.7,0.8,1.8,1.3,2.9,1.3l-0.8-3.8C290.8,527.9,290.9,527.7,290.9,527.5z"
	/>
<g>
	<path class="st5" d="M327,537.6c-0.8,0-1.5-0.1-2.2-0.2c-5.5-1.2-8.3-6.2-10-9.1c-7.5-12.9-14.7-26.8-12.8-41.5
		c1.3-10.3,6.9-19,11.9-26.7c1-1.7,2.7-4.3,5.6-5.6c1.5-0.7,3.5-1,5.5-0.8c15.2,0.9,25.9,15.9,27.4,30s-3.7,28.1-7.9,39.3
		c-0.9,2.6-2.2,6.2-5.4,8.5c-0.7,0.5-1.4,0.9-2.2,1.2C333.3,536.4,329.8,537.6,327,537.6z M327,461.8c0,0,0,0.1-0.1,0.1
		c-4.4,10.2-8.4,20.2-9.4,30.7c-1.1,11.3,1.6,21.7,7.5,28.5c1.8,2,4.3,3.7,6.4,4.1c0.4-0.1,0.8-0.2,1.2-0.4c0.5-0.8,1-1.5,1.3-2
		c0.6-1,1.6-1.7,2.7-1.9c0.1-0.3,0.2-0.5,0.3-0.8c4.1-11.1,8.8-23.5,7.5-35.7C343.4,474.7,336.6,464,327,461.8z"/>
</g>
<path class="st5" d="M406.7,491.2c-0.1-8.2-0.8-17.4-7.5-23.3c-6.7-5.8-16-5-24-3.9c-0.3,0-0.5,0.1-0.8,0.2
	c-0.6-0.4-1.3-0.6-2.2-0.6c-2.2,0-4,1.8-4,4c0,17.5,0.1,34.9,0.2,52.4c0.1,17.4,0.1,34.9,0.2,52.3c0,2.1,1.7,3.9,3.8,4
	c0.1,0,0.1,0,0.2,0c2,0,3.8-1.6,4-3.6c1.5-15.4,2.6-30.8,3.1-46.1c4-0.2,8.1-0.7,11.8-2.2c4.3,0.4,8.5-2.4,10.4-6.1
	c1-1.8,1.4-3.8,1.7-5.7C406.3,506.4,406.8,498.8,406.7,491.2z M391.4,497.4c-0.8,7.5-5.2,14.5-11.4,18.8c0.4-14.6,0.3-29.1-0.2-43.5
	l0,0C387.8,477.9,392.5,487.8,391.4,497.4z"/>
<g>
	<path class="st4" d="M435.7,517.6"/>
</g>
<path class="st6" d="M422.9,505.8"/>
<g>
	<path class="st4" d="M467.7,466.4h1.5c-1.5,0.1-2.9,0.1-4.4,0.2c1.4,17.1,2.8,34.2,4.2,51.3c0-15.4-0.1-30.8-0.1-46.2
		c0.1,14.2,0.1,28.4-0.2,42.7c0,1.9-0.1,3.9-1.3,5.3s-3.9,1.7-4.7,0c-0.4-0.8-0.2-1.7-0.1-2.5c2.4-15.9,4-32,5-48c0,7,0.1,14,0.1,21
		c-0.5-11.8,10.2-22.9,21.9-22.6c1.6,0,3.4,0.5,3.9,2c0.5,1.6-1.3,3.1-2.9,3.4s-3.3-0.4-5-0.4c-4.8-0.2-8.7,4-10.9,8.3
		s-3.5,9.2-6.6,12.9"/>
	<path class="st5" d="M497.3,468.3c-1-3-3.8-4.7-7.6-4.7c-6.1-0.1-12.2,2.3-17,6.6c-0.1-0.4-0.3-0.7-0.6-1c0.8-0.8,1.2-1.8,1.2-3
		c-0.1-2.2-1.8-3.9-4-3.9h-1.5c-0.3,0-0.6,0-0.9,0.1c-0.7,0-1.5,0.1-2.2,0.1c-1.1,0.1-2.1,0.6-2.8,1.4c-0.7,0.8-1,1.9-1,2.9
		l1.5,18.7c-1,10.8-2.2,21.1-3.7,31v0.1v0.3c-0.1,1-0.4,2.7,0.5,4.4c0.9,1.9,2.6,3.1,4.7,3.4c0.3,0,0.6,0.1,0.9,0.1
		c2.1,0,4.3-1,5.7-2.6c0.3-0.3,0.6-0.7,0.8-1.1c1.1-0.7,1.8-1.9,1.8-3.3c0-7.7,0-15.4,0-23.1c0-0.3,0-0.6,0-0.9
		c1.4-2.3,2.4-4.7,3.4-7c0.6-1.5,1.2-2.9,1.9-4.2c1.5-2.9,4.2-6.1,7-6.1c0.1,0,0.1,0,0.2,0c0.4,0,1,0.1,1.6,0.2
		c1.2,0.2,2.7,0.5,4.3,0.1c2.2-0.4,4.3-1.8,5.4-3.6C497.6,471.8,497.8,470,497.3,468.3z"/>
</g>
<g>
	<path class="st5" d="M57.1,614.9H45.3c-3.1,0-6.7,0-10-1.8c-0.5-0.3-1-0.6-1.5-0.9c-0.2-0.1-0.5-0.3-0.8-0.5
		c-0.5,1.2-1.5,2.1-2.8,2.4c-1.8,0.4-3.7-0.4-4.5-2.1c-0.6-1.2-0.7-2.6-0.4-3.9v-6.9c-0.1-0.4-0.3-0.8-0.4-1.2
		c-0.5-2.2-0.2-4.3,1-6.1c1-1.5,2.8-2.2,4.5-1.7s2.9,2.1,2.9,3.8v3.1c0.1,0.1,0.2,0.2,0.3,0.2c1.4,0.9,3.5,0.9,5.6,1
		c2.3,0.1,4.5,0.2,6.7,0.2c2.3,0.1,4.6,0.2,6.9,0.3c2,0.1,4.1,0.1,5.6-0.6c0.2-0.1,0.4-0.2,0.5-0.3c-1.6-4.2-5.3-8.3-9-12.2
		c-1.5-1.5-3-3.1-4.5-4.6c-0.9-0.9-1.8-1.8-2.7-2.8c-1.6-0.7-3.1-1.5-4.6-2.5c-5.4-3.6-8.4-9.2-7.8-14.5c0.9-7.7,8.7-12.3,15.7-12.7
		c3.9-0.2,7.6,0.4,11.1,1c0.6,0.1,1.1,0.2,1.7,0.3c0.4-1.3,1.5-2.3,2.8-2.7c1.7-0.4,3.5,0.3,4.4,1.7c1.7,2.7,3,6.7,1.8,10.1
		c-0.4,1.1-1,2-1.8,2.7v0.6c-0.1,1.2-0.6,2.3-1.6,3c-0.9,0.7-2.1,1-3.3,0.7c-3.2-0.7-5.7-2.4-8-3.9c-0.7-0.5-1.4-0.9-2.1-1.4
		c-1.3-0.2-2.6-0.3-3.8-0.2c-0.9,0-1.5,0.1-1.8,0.2c0.2,0.4,0.7,1.4,2.3,3c3.9,3.9,7.4,8.1,10.5,12.5c4.6,2.7,7.9,6.1,9.7,10.1
		c1.3,2.9,1.7,6.3,1.1,9.4c0.1,0.3,0.3,0.6,0.4,1c1.1,2.6,2.2,6,0.8,9.5C67.8,614.9,59.7,614.9,57.1,614.9z"/>
</g>
<path class="st5" d="M114.7,567.6c-1.4-0.2-2.8-0.3-4.2-0.4l-4.5-5.3c-0.1-7.7-0.4-15.4-0.7-23.1c-0.1-2.2-0.3-6.4-3.4-9
	c-1.8-1.6-4.2-2.2-6.8-1.9c-2,0.3-4,1.3-5.5,2.6c-0.6,0.4-1.1,0.9-1.4,1.5c-0.1,0.2-0.3,0.4-0.4,0.6c-1,1.6-1.6,3.3-1.9,5
	c-1.2,1.9-2.9,3.5-4.8,4.6s-2.6,3.5-1.5,5.5c0.9,1.7,2.9,2.4,4.6,1.8l0.4,1.2c0.1,3.4,0.5,6.8,0.9,10c0,1.7,0,3.4,0,5.1
	c-2.4,0-4.7,0-7.1,0.1c-2.1,0.1-3.8,1.7-3.9,3.9c-0.1,2.1,1.5,3.9,3.6,4.1c2.5,0.2,5.1,0.5,7.6,0.7c0.4,12.2,1.4,23.7,2.8,34.7
	c1.5,12.1,6.9,15.9,11.2,16.9c0.8,0.2,1.7,0.3,2.5,0.3c6.2,0,11.2-5.2,13.7-10.2c0.4-0.8,1.5-2.9,0.4-5.3c-0.6-1.4-1.7-2.4-3.1-2.8
	c-2.5-0.8-4.6,0.6-6.2,1.7c-0.1,0-0.1,0.1-0.2,0.1l-1.4-4c0-0.1,0-0.1,0-0.2c0.4-10.3,0.6-20.7,0.6-31.2c2.6,0.2,5.2,0.4,7.8,0.7
	c2.2,0.2,4.2-1.3,4.4-3.5C118.5,569.8,116.9,567.9,114.7,567.6z"/>
<path class="st5" d="M168.7,603.5c-0.6-10.1-1.2-20.6-1.9-30.9l0-0.1c-0.4-6-0.8-12.9-4.3-18.6c0,0,0-0.1,0-0.1
	c-0.1-0.3-0.1-0.7-0.2-1c-0.3-2-2.1-3.4-4.1-3.3c-2,0.1-3.6,1.6-3.9,3.6c-0.3,2.8-0.5,5.4-0.6,8.1c-0.5,3-1,6.1-1.6,9.1
	c-0.1,0.4-0.1,0.8-0.1,1.3c0.3,3.2,0.6,7,0.1,10.8c-0.4,3.1-1.9,7.4-3.5,8.9c-0.3,0.2-0.5,0.5-0.7,0.8c-0.2,0.4-0.6,0.7-1.1,0.9
	c-0.1,0-0.1,0.1-0.2,0.1c-0.1,0-0.3,0.1-0.4,0.1c-0.1,0-0.1,0-0.2,0.1c-0.2-0.1-0.3-0.1-0.5-0.2c-0.6-0.1-3.4-1.4-4.4-12.7
	c-0.1-1.1-0.1-2.2-0.2-3.4c-0.1-1.2-0.1-2.5-0.2-3.8c-0.1-1.4-0.9-2.6-2.2-3.2c-0.1,0-0.2-0.1-0.2-0.6c0-1,0.1-2.1,0.2-3.2
	c0-0.6,0.1-1.2,0.1-1.7c0-0.6-0.1-1.2-0.3-1.8l-4.6-10.9c-0.7-1.7-2.6-2.7-4.4-2.4c-1.8,0.3-3.2,1.9-3.3,3.8
	c-0.6,14.2,0.2,28.6,2.3,42.9c0.6,4.2,1.6,9.1,4.3,13.2c2.9,4.3,8.6,8,14.7,6.4c5.1-1.3,8-5.5,9.6-9.6c0.6,2.9,1.3,5.7,2.1,8.4
	c0.4,1.5,1.7,2.6,3.2,2.9c0.2,0,0.4,0.1,0.6,0.1c1.3,0,2.6-0.7,3.3-1.8C169.2,611.2,168.9,606.6,168.7,603.5z"/>
<path class="st5" d="M215.9,554.9c-1.4-2-3.7-3-6.2-3c-2.9,0.1-5.9,1.6-7.5,4c-2.2,3-2.4,6.6-2.6,9.5v0.6
	c-0.7,9.4-3.3,18.6-6.5,27.4c-4.6-12.3-9-24.8-13.2-37.6c-0.6-2.1-2.9-3.3-5-2.6c-0.3,0.1-0.7,0.3-1,0.5c-0.2,0-0.5,0-0.7,0.1
	c-2.1,0.5-3.4,2.7-2.9,4.8c4.4,17.4,9.9,34.5,16.4,51c-0.3,1.6-0.1,3.3,0.5,5c1,2.6,2.9,4.7,5.4,5.7c0.5,0.2,1,0.3,1.5,0.3
	c1.4,0,2.8-0.8,3.5-2.1c9.5-17.2,15.3-36.5,16.8-56.1l2-3.6C216.9,557.5,216.7,556,215.9,554.9z"/>
<g>
	<path class="st5" d="M215.8,560.9"/>
</g>
<g>
	<path class="st5" d="M212.7,552.7c1.2,0.1,2.3,0.7,3,1.7s0.9,2.2,0.6,3.4"/>
</g>
<path class="st5" d="M296.9,555.4c-0.7-0.8-1.8-1.3-2.9-1.4l-7.5-0.1c0,0,0,0-0.1,0c-2.1,0-3.9,1.7-4,3.8
	c-0.6,13.8-3.5,27.7-8.5,40.7c-1.4-4.5-3.4-8.9-5.8-13c0-0.2-0.1-0.4-0.1-0.6c-0.2-1.1-0.9-2.1-1.9-2.7c-0.7-1-1.4-2-2.1-2.9
	c-0.8-1.1-2.2-1.7-3.5-1.6c-1.4,0.1-2.6,0.9-3.2,2.1c-3.8,7.3-8.4,14.6-13.6,21.8c-3.4-12.7-7-25.7-10.6-38.6
	c-0.1-0.3-0.2-0.7-0.4-1c-0.3-1.2-0.6-2.4-0.8-3.7c-0.5-2.2-2.6-3.5-4.8-3s-3.5,2.6-3,4.8c0.8,3.3,1.5,6.6,2.3,9.9
	c1.3,6.3,2.5,12.5,3.8,18.7c1.6,8,3.2,15.9,4.8,23.9c0.4,2.6,1.4,4.5,3.1,5.8c0.6,0.5,1.3,0.9,2.1,1.1c0.7,1.2,1.7,2.3,3.2,3.1
	s3.2,0.9,4.8,0.4c0.1,0,0.1,0,0.2-0.1c2.4-0.9,3.4-3,4-4.3l0.1-0.2c0-0.1,0.1-0.1,0.1-0.2c2.7-6.1,6.4-11.8,10.7-16.8
	c1.8,8.7,5.7,16.9,11.3,23.6c0.8,0.9,1.9,1.4,3.1,1.4c0.2,0,0.4,0,0.6,0c1.4-0.2,2.6-1.1,3.1-2.4c8.7-21,14.3-43.1,16.9-65.7
	C298,557.3,297.6,556.2,296.9,555.4z"/>
<path class="st5" d="M327,596.3l0.2-0.3c7-8.6,13.7-17.9,19.7-27.5c1.1-1.8,0.7-4.1-1-5.3c-0.2-0.1-0.4-0.3-0.6-0.4
	c-0.2-0.4-0.5-0.8-0.9-1.1c-1.7-1.3-4.1-1.1-5.5,0.5c-6.6,7.5-13,15.1-19.4,22.9c-3.3-7.8-6.4-15.7-9.2-23.7c-0.7-2.1-3-3.2-5.1-2.5
	s-3.2,3-2.5,5.1c3.3,9.5,7,18.9,11,28.1c-7.4,9.3-14.5,18.8-21.4,28.4c-1.3,1.8-0.9,4.3,0.9,5.6c0.7,0.5,1.5,0.7,2.3,0.7
	c0.5,0,1-0.1,1.5-0.3c1.6,0.6,3.6,0.1,4.7-1.3l8.9-11.9c2.6-3.5,5.3-7.1,8-10.7c3.3,7,6.8,13.9,10.5,20.7c1,1.9,3.4,2.6,5.3,1.7
	c1.9-1,2.7-3.3,1.8-5.3c-1.6-3.4-3.1-6.7-4.7-10s-3.1-6.6-4.7-10c-0.8-1.6-0.8-2.2-0.8-2.4C326.2,597.2,326.7,596.7,327,596.3z"/>
<path class="st5" d="M411.3,567.2c-0.1-1.6-1.2-3-2.8-3.5c-1.8-0.6-3.8,0.2-4.7,1.9l-23.1,41.8c-6.7-11.4-13.2-23.2-19.3-35
	c-1-2-3.4-2.7-5.4-1.7s-2.7,3.4-1.7,5.4c0.3,0.6,0.7,1.3,1,1.9c-0.5,1-0.5,2.2,0,3.3l0.7,1.5c4.1,8.9,8.4,18.2,14,26.7
	c1.6,3.9,3.1,7.8,4.4,11.8c0.1,0.4,0.3,0.8,0.6,1.1c-0.8,1.3-1.6,2.6-2.4,3.9c-6.2,9.2-12.4,18.5-18.7,27.7l-0.8,1.3
	c-3.4,5-2.1,8.3-0.8,9.8c-0.1,0.1-0.1,0.2-0.2,0.3c-1.1,1.9-0.4,4.4,1.6,5.4c0.6,0.3,1.3,0.5,1.9,0.5c0.8,0,1.5-0.2,2.1-0.6
	c0.9-0.2,1.7-0.7,2.3-1.5c18.2-25.1,33.2-52.2,44.9-80.8c0.7-1.4,1.3-2.7,1.9-4.1c2.9-4.4,5-9.2,5.1-14.9
	C411.9,568.5,411.7,567.8,411.3,567.2z"/>
<g>
	<path class="st5" d="M431.8,526.6c0.8,0,1.6-0.1,2.5-0.2c4.1-0.8,7.1-3.3,9.3-6.3c0.3,20.6-0.2,41.2-1.7,61.8
		c-0.1,1.6,0.7,3.1,2.2,3.9c0.6,0.3,1.2,0.4,1.8,0.4c0.9,0,1.9-0.3,2.6-1c4.3-3.7,7.7-8.6,9.7-14.1c5.3-5.1,8.7-12.5,9.1-20.1
		c0.2-2.2-1.5-4.1-3.7-4.2c-1.6-0.1-3.1,0.9-3.8,2.3c-1.7,3.3-3.6,6.7-5.6,10.1c0-6.7,0-13.4,0-20.1c0-11,0-22,0-32.9
		c0-1.9-1.3-3.5-3.1-3.9c-0.5-11.4-1.2-22.7-2.2-34c-0.1-1-0.6-1.9-1.3-2.6c-1.6-2.2-4.5-2.6-5.5-2.7c-5.3-0.7-15.1,2.8-21.1,11.5
		c-3.8,5.6-4.4,10.8-5.5,21.4c-0.6,5.9-1.3,12.7,1,19C418.8,521,424.9,526.6,431.8,526.6z M423.4,496.8c0.6-6-1.7-17.1,4.5-18.2
		c5.3-1,12.6-1.8,12.9-5.8c0-0.5,0.2-1,0.4-1.4c0.9,10.8,1.6,21.7,2.1,32.6c-0.9,0.5-1.6,1.3-2,2.4c-1.8,5.6-4.1,11.3-8.5,12.2
		c-3.6,0.7-7.4-2.7-8.8-6.4C422.3,507.6,422.9,502.1,423.4,496.8z"/>
	<path class="st5" d="M473.4,593.1c-0.6-1.5-2.1-2.5-3.7-2.5c0,0,0,0,0,0c-7.9,0-15.8,0.1-23.7,0.2c-0.7,0-1.4,0-2.1,0l-20.1-2.3
		c-2.1-0.2-4,1.2-4.4,3.2c-0.1,0.3-0.1,0.7-0.1,1c-0.5,0.7-0.7,1.4-0.7,2.3c0,2.2,1.8,4,4,4c0,0,0,0,0,0c3.5,0,7.1-0.1,10.6-0.1
		c8,1.4,16.2,2,24.4,1.6c-5.6,5.3-11.4,10.9-17.1,16.2c-9.6,9.3-19.9,19.1-30.7,28.4c-1.3,1.2-1.8,3.1-1,4.7
		c0.8,1.6,2.5,2.5,4.3,2.3c17.5-2.8,35.5-1,52.2,5.2c0.5,0.2,0.9,0.3,1.4,0.3c0.8,0,1.6-0.2,2.2-0.7c1.1-0.7,1.7-1.9,1.8-3.2
		L471,643c0-1.1-0.4-2.2-1.2-3c-0.8-0.8-1.9-1.2-3-1.1c-7.6,0.3-15.2,0.4-22.8,0.1c-1.3-0.4-2.5-0.8-3.8-1.2c3.2-3.2,6-6.8,8.6-10.2
		c0.5-0.7,1.1-1.4,1.6-2.2c7.4-8.2,14.3-16.7,20.8-25.5c0.4-0.6,0.7-1.3,0.8-2c0.2-0.2,0.3-0.3,0.5-0.5
		C473.6,596.4,474,594.6,473.4,593.1z"/>
</g>
<path class="st6" d="M91.6,667.7c-3.3,6-11.6,6.3-17.8,9.2c-8.6,4.1-13.2,13.8-14.6,23.2c-0.8,5.2-0.1,11.7,4.6,14
	c1.9,0.9,4,1,6.1,1c8.2,0.1,18.1-0.8,21.8-8.2c2.1-4.2,1.3-9.3,0.4-14c-0.9-4.9-2-10-5.1-13.9s-8.9-6.1-13.2-3.6
	c-3.4,2-4.7,6.2-5.8,10c-2.6,9.3-5.2,18.6-7.9,27.9c-0.3,1.2-0.6,2.5,0,3.5c0.5,0.8,1.5,1.2,2.5,1.5c10.2,3.2,21.9,1.7,30.9-4.1
	c-4.3,1-8.6,2-13,1.6s-8.8-2.6-10.8-6.5c-1.3-2.7-1.4-5.8-1.4-8.8c-0.1-5.8-0.2-11.6-0.2-17.5c-5,2.3-8.4,7.7-8.4,13.2
	s3.4,10.9,8.3,13.2c-0.9-8-1.3-16-1.1-24.1c-3.8,2.6-5.7,7.5-4.7,12"/>
<path class="st6" d="M65.5,709.8l2.6,6.1"/>
<path class="st6" d="M92.8,709.2c-4.2,6.3-9.9,11.5-16.6,14.9c-3.2,1.7-6.6,3-9.4,5.2s-5.1,5.5-4.8,9.1c0.2,2.3,1.3,4.4,2.7,6.2
	c3.1,4.1,7.4,7.3,12.2,9.1c5.2,1.9,12.2,3.7,12.4,9.2c0.1,2.5-1.4,4.7-2.8,6.7s-2.9,4.3-2.7,6.7s3,4.7,5.1,3.4"/>
<path class="st6" d="M63.5,741.5c4.8,2.8,9.8,5.8,15.3,6s11.6-3.3,12.2-8.8c0.5-4.4-2.6-8.5-6.2-11.1s-7.8-4.4-11.2-7.3"/>
<path class="st6" d="M116.6,682h1.5c-1.5,0.1-2.9,0.1-4.4,0.2c1.4,17.1,2.8,34.2,4.2,51.3c0-15.4-0.1-30.8-0.1-46.2
	c0.2,14.2,0.1,28.4-0.2,42.7c0,1.9-0.1,3.9-1.3,5.3s-3.8,1.7-4.7,0c-0.4-0.8-0.2-1.7-0.1-2.5c2.4-15.9,4.1-32,5.1-48
	c0,7,0.1,14,0.1,21c-0.5-11.8,10.2-22.8,21.8-22.6c1.6,0,3.4,0.5,3.9,2c0.5,1.6-1.3,3.1-2.9,3.3s-3.3-0.4-5-0.4
	c-4.8-0.2-8.7,4-10.9,8.3s-3.5,9.2-6.6,12.9"/>
<path class="st6" d="M148.9,703H170"/>
<path class="st6" d="M155.4,703c0.3-8.2,6.8-14.8,14-18.4c7-3.5,16.7-4.2,21.3,2.2c2.5,3.5,2.8,8.2,2.9,12.7
	c0.4,15.2,0.8,30.3,1.2,45.5c0,1.3,0.1,2.7-0.5,3.9c-2,3.9-7.8,1.9-11.3-0.6c8.3-1.1,16.8-1,25.1,0.3c-6.5,3.3-14.4,3.8-21.2,1.4"/>
<path class="st6" d="M191.2,717c-11.8-0.3-23.2,8.7-26,20.5c6.8,3.7,15.7,0.2,20.2-6.2s5.4-14.8,4.8-22.7
	c-0.4-5.4-1.9-11.5-6.7-13.9c-1.8-0.9-3.9-1.2-6-1.2c-8.1-0.2-16.2,2.7-22.6,7.8c4.7-8.9,14.4-14.8,24.3-14.8c2.4,0,5,0.4,6.9,2
	c2.7,2.3,3.2,6.3,3.5,9.9c1.3,17.1,2.6,34.2,3.9,51.3c0.5-17.7-1.3-35.4-5.3-52.5c-0.4-1.8-0.9-3.6-2.1-5c-3.8-4.2-10.7-0.2-16-1.8
	c2.6-4.2,9.4-3.2,12.5,0.6s3.6,9.1,4,14.1c0.5,6.3,0.9,12.6,1.4,18.9c0.2,2.8,0.4,5.7-0.6,8.4c-1.3,3.6-4.5,6-7.6,8.2
	c-2.8,2-6.1,4-9.5,3.3s-5.7-5.7-3-7.9"/>
<path class="st6" d="M224.5,676.7h7.1c-2.6,0-5.1,0.1-7.6,0.1c1.1,22.3,1,44.7-0.2,67.1c-0.1,2.4-0.2,5,1.2,6.9s5,2.4,6.1,0.3
	c-0.2-24.8-0.4-49.6-0.6-74.3c-3.5,5.7-3.6,12.7-3.6,19.3c0,18.4,0,36.8,0.1,55.2c0.4-11.7,0.8-23.5,3.8-34.8s9.1-22.2,18.8-29.1
	c-7.8,1.5-14.2,8.4-14.9,16.2c1.2-4.5,4.2-8.5,8.2-10.9c2.4-1.5,5.3-2.5,8.1-2c6.4,1.2,8.7,8.7,9.8,15c2.8,16.5,5.4,33,7.7,49.6"/>
<path class="st6" d="M253.8,687.1c10.6,20.5,14.8,44.1,12.1,66.9"/>
<path class="st6" d="M309.4,709.4c0.6-4.9-7-7.1-10.7-3.9s-4.4,8.6-4.7,13.5c-0.3,4-0.6,8-0.9,12c-0.5,6.5,0.4,14.9,6.7,16.5
	c4.1,1,8.4-2,10.2-5.7s1.9-8.2,1.9-12.4c0-27.6-0.1-55.3-0.1-82.9c0-3.2,0-6.6-1.5-9.4s-4.8-5.1-7.9-4.2c5.2,0.2,10.3,0.4,15.5,0.5"
	/>
<path class="st6" d="M309.1,704.1c-8.8-0.6-16.8,6-20.2,14.1c-3.4,8.1-2.9,17.3-1.4,25.9c0.3,1.6,0.6,3.3,1.5,4.7
	c3,4.8,10.8,3.9,14.6-0.3s4.6-10.2,5.3-15.8c1-8.2,1.9-16.3,2.9-24.5c-1.9,15.6-1.7,31.5,0.6,47"/>
<path class="st6" d="M303.9,707c-10.8,12-14.8,29.5-10.4,45"/>
<path class="st6" d="M294,745.5c-2.6-11.2-4.6-24.7,3.7-32.6"/>
</svg>
